HIERARCHY
ROOT Hips
{
	OFFSET 0.000000 0.000000 0.000000
	CHANNELS 6 Xposition Yposition Zposition Zrotation Yrotation Xrotation 
	JOINT LHipJoint
	{
		OFFSET 0.000000 0.000000 0.000000
		CHANNELS 3 Zrotation Yrotation Xrotation
		JOINT LeftUpLeg
		{
			OFFSET 1.363060 -1.794630 0.839290
			CHANNELS 3 Zrotation Yrotation Xrotation
			JOINT LeftLeg
			{
				OFFSET 2.448110 -6.726130 0.000000
				CHANNELS 3 Zrotation Yrotation Xrotation
				JOINT LeftFoot
				{
					OFFSET 2.562200 -7.039590 0.000000
					CHANNELS 3 Zrotation Yrotation Xrotation
					JOINT LeftToeBase
					{
						OFFSET 0.157640 -0.433110 2.322550
						CHANNELS 3 Zrotation Yrotation Xrotation
						End Site
						{
							OFFSET 0.000000 0.000000 0.000000
						}
					}
				}
			}
		}
	}
	JOINT RHipJoint
	{
		OFFSET 0.000000 0.000000 0.000000
		CHANNELS 3 Zrotation Yrotation Xrotation
		JOINT RightUpLeg
		{
			OFFSET -1.305520 -1.794630 0.839290
			CHANNELS 3 Zrotation Yrotation Xrotation
			JOINT RightLeg
			{
				OFFSET -2.542530 -6.985550 0.000000
				CHANNELS 3 Zrotation Yrotation Xrotation
				JOINT RightFoot
				{
					OFFSET -2.568260 -7.056230 0.000000
					CHANNELS 3 Zrotation Yrotation Xrotation
					JOINT RightToeBase
					{
						OFFSET -0.164730 -0.452590 2.363150
						CHANNELS 3 Zrotation Yrotation Xrotation
						End Site
						{
							OFFSET 0.000000 0.000000 0.000000
						}
					}
				}
			}
		}
	}
	JOINT LowerBack
	{
		OFFSET 0.000000 0.000000 0.000000
		CHANNELS 3 Zrotation Yrotation Xrotation
		JOINT Spine
		{
			OFFSET 0.028270 2.035590 -0.193380
			CHANNELS 3 Zrotation Yrotation Xrotation
			JOINT Spine1
			{
				OFFSET 0.056720 2.048850 -0.042750
				CHANNELS 3 Zrotation Yrotation Xrotation
				JOINT Neck
				{
					OFFSET 0.000000 0.000000 0.000000
					CHANNELS 3 Zrotation Yrotation Xrotation
					JOINT Neck1
					{
						OFFSET -0.054170 1.746240 0.172020
						CHANNELS 3 Zrotation Yrotation Xrotation
						JOINT Head
						{
							OFFSET 0.104070 1.761360 -0.123970
							CHANNELS 3 Zrotation Yrotation Xrotation
							End Site
							{
								OFFSET 0.000000 0.000000 0.000000
							}
						}
					}
				}
				JOINT LeftShoulder
				{
					OFFSET 0.000000 0.000000 0.000000
					CHANNELS 3 Zrotation Yrotation Xrotation
					JOINT LeftArm
					{
						OFFSET 3.362410 1.200890 -0.311210
						CHANNELS 3 Zrotation Yrotation Xrotation
						JOINT LeftForeArm
						{
							OFFSET 4.983000 -0.000000 -0.000000
							CHANNELS 3 Zrotation Yrotation Xrotation
							JOINT LeftHand
							{
								OFFSET 3.483560 -0.000000 -0.000000
								CHANNELS 3 Zrotation Yrotation Xrotation
								JOINT LeftFingerBase
								{
									OFFSET 0.000000 0.000000 0.000000
									CHANNELS 3 Zrotation Yrotation Xrotation
									JOINT LeftHandIndex1
									{
										OFFSET 0.715260 -0.000000 -0.000000
										CHANNELS 3 Zrotation Yrotation Xrotation
										End Site
										{
											OFFSET 0.000000 0.000000 0.000000
										}
									}
								}
								JOINT LThumb
								{
									OFFSET 0.000000 0.000000 0.000000
									CHANNELS 3 Zrotation Yrotation Xrotation
									End Site
									{
										OFFSET 0.000000 0.000000 0.000000
									}
								}
							}
						}
					}
				}
				JOINT RightShoulder
				{
					OFFSET 0.000000 0.000000 0.000000
					CHANNELS 3 Zrotation Yrotation Xrotation
					JOINT RightArm
					{
						OFFSET -3.136600 1.374050 -0.404650
						CHANNELS 3 Zrotation Yrotation Xrotation
						JOINT RightForeArm
						{
							OFFSET -5.241900 -0.000000 -0.000000
							CHANNELS 3 Zrotation Yrotation Xrotation
							JOINT RightHand
							{
								OFFSET -3.444170 -0.000000 -0.000000
								CHANNELS 3 Zrotation Yrotation Xrotation
								JOINT RightFingerBase
								{
									OFFSET 0.000000 0.000000 0.000000
									CHANNELS 3 Zrotation Yrotation Xrotation
									JOINT RightHandIndex1
									{
										OFFSET -0.622530 -0.000000 -0.000000
										CHANNELS 3 Zrotation Yrotation Xrotation
										End Site
										{
											OFFSET 0.000000 0.000000 0.000000
										}
									}
								}
								JOINT RThumb
								{
									OFFSET 0.000000 0.000000 0.000000
									CHANNELS 3 Zrotation Yrotation Xrotation
									End Site
									{
										OFFSET 0.000000 0.000000 0.000000
									}
								}
							}
						}
					}
				}
			}
		}
	}
}
MOTION
Frames: 6
Frame Time: 0.008333
-26.359942 17.509102 -0.197627 -156.267985 70.363323 -140.846743 2.350061 -4.216262 -2.916745 -2.786190 -12.436081 -20.196483 0.653041 8.972827 22.788543 -2.922475 16.063670 -14.246069 0.206600 -2.926700 -8.074700 -7.611499 1.935858 -4.562439 29.285801 -5.447965 -3.253146 0.073095 -1.716428 -0.192506 3.960011 -34.927460 -27.363007 -0.036200 -1.228700 3.378200 12.035556 7.348563 -16.183691 -0.044625 5.323015 -1.638585 -4.491765 3.068831 9.451785 15.111671 17.049683 0.773688 -2.430593 22.619892 10.457751 -4.610600 11.904700 10.346000 -7.353128 -2.900184 0.429346 -78.549680 -5.060083 36.834582 6.932254 -20.526627 -1.748985 -0.387373 -0.434902 -0.809507 11.059608 6.640041 1.428100 -7.125000 0.000000 0.000000 -12.940600 36.909900 2.629400 11.447497 1.315621 -0.760398 69.734797 -10.640008 19.241103 -18.317897 32.049546 -6.662674 1.169893 0.474849 -11.496771 -10.330153 -29.871161 5.838100 7.125000 0.000000 0.000000 22.255200 -59.061500 -7.890700 
-26.359942 17.508786 -0.194893 -155.949928 70.509172 -140.597813 2.348311 -4.196377 -2.911039 -2.842140 -12.030055 -20.270761 0.671579 8.975795 22.861417 -2.855248 15.759470 -14.094011 0.187300 -2.787400 -7.687500 -7.601085 1.940173 -4.548860 29.263231 -5.295145 -3.172460 0.069367 -1.713972 -0.190985 3.907082 -34.789871 -27.527620 -0.046200 -1.387400 3.815300 12.336879 7.345414 -15.765065 -0.094654 5.363641 -1.683128 -4.859867 3.090323 9.207214 15.022690 17.145886 0.432466 -2.352473 22.773021 10.678782 -4.495000 11.959700 10.556400 -7.361090 -2.923746 0.414000 -78.362024 -4.854782 37.132737 6.977552 -20.556817 -1.746368 -0.405536 -0.382955 -0.448439 12.435991 5.120359 1.252100 -7.125000 0.000000 0.000000 -11.515300 35.423100 2.755300 11.424365 1.347743 -0.765182 69.907434 -10.560008 19.341173 -18.271398 31.991108 -6.617040 1.173041 0.456046 -11.408560 -10.227249 -29.444174 5.708000 7.125000 0.000000 0.000000 22.028400 -58.633200 -7.576700 
-26.357313 17.508891 -0.191948 -156.348891 70.585296 -141.047340 2.331007 -4.198317 -2.893749 -3.031433 -11.863396 -20.263817 0.663605 8.960782 22.819532 -2.820569 15.613081 -14.022501 0.166100 -2.625300 -7.237200 -7.591410 1.941408 -4.550218 29.092215 -5.368039 -3.082251 0.065042 -1.702710 -0.192383 3.843361 -34.621353 -27.701741 -0.062200 -1.609400 4.427400 12.448171 7.307058 -15.382450 -0.186833 5.422554 -1.707116 -5.282432 3.116990 9.028950 15.038766 17.226232 0.111934 -2.248211 22.838591 10.735793 -4.394200 11.971000 10.660200 -7.391752 -2.946728 0.409139 -77.994304 -4.750477 37.799439 7.057895 -20.631330 -1.754179 -0.435680 -0.376017 -0.310809 13.641791 5.129465 1.378000 -7.125000 0.000000 0.000000 -10.502400 35.488700 2.488700 11.380942 1.377545 -0.766896 70.283748 -10.449055 19.170720 -18.247452 31.955908 -6.595555 1.181422 0.431453 -11.246764 -10.165410 -29.286201 5.646900 7.125000 0.000000 0.000000 21.955700 -58.455000 -7.455100 
-26.348267 17.509628 -0.187741 -156.759514 70.772062 -141.498298 2.309341 -4.202426 -2.873880 -3.295401 -11.649638 -20.185413 0.650822 8.937844 22.760873 -2.799507 15.559548 -14.170230 0.156800 -2.551400 -7.032200 -7.588729 1.940464 -4.554677 28.879593 -5.355631 -2.957653 0.063536 -1.690998 -0.191534 3.864399 -34.677474 -27.648595 -0.052100 -1.473200 4.051900 12.454442 7.306407 -15.068949 -0.295402 5.547927 -1.726654 -5.663355 3.172378 8.870987 15.081814 17.266876 -0.056474 -2.122275 22.826394 10.678757 -4.312900 11.953300 10.645800 -7.438870 -2.969686 0.408951 -77.548109 -4.664872 38.359020 7.105977 -20.669376 -1.757878 -0.465779 -0.390557 -0.238981 14.500474 5.733445 1.633200 -7.125000 0.000000 0.000000 -9.864100 36.163200 2.169200 11.328584 1.401003 -0.772641 70.703800 -10.462692 19.019627 -18.297797 32.007226 -6.617597 1.190739 0.412079 -11.217311 -10.140318 -29.347070 5.643900 7.125000 0.000000 0.000000 22.005400 -58.487500 -7.490400 
-26.343534 17.511836 -0.184901 -157.083597 71.006924 -141.750049 2.293042 -4.211735 -2.855380 -3.465097 -11.660275 -20.140841 0.628996 8.907610 22.646498 -2.833986 15.714872 -14.244797 0.162000 -2.592900 -7.147300 -7.592835 1.935887 -4.540568 28.676936 -5.211522 -2.978253 0.058644 -1.683053 -0.190383 3.896511 -34.770717 -27.566597 -0.041100 -1.307700 3.595900 12.493673 7.326647 -14.806822 -0.402821 5.687760 -1.769261 -6.045696 3.234372 8.677083 15.058516 17.265581 -0.256834 -2.013515 22.774346 10.678574 -4.235200 11.916000 10.658600 -7.480803 -2.996261 0.402579 -77.150733 -4.615948 38.608207 7.182426 -20.743400 -1.775672 -0.473088 -0.405639 -0.557839 14.587337 5.957538 1.707300 -7.125000 0.000000 0.000000 -9.820500 36.409000 2.099600 11.278180 1.427954 -0.783133 71.063685 -10.495747 18.935643 -18.343876 32.061202 -6.643600 1.198585 0.405990 -11.262006 -9.900128 -29.592737 5.566200 7.125000 0.000000 0.000000 22.422700 -58.654700 -7.732900 
-26.335225 17.513835 -0.181114 -158.017072 71.192110 -142.610951 2.262090 -4.227452 -2.816707 -3.774857 -11.658856 -20.136378 0.599676 8.873657 22.498210 -2.844131 15.748020 -14.132888 0.148000 -2.479200 -6.831900 -7.580138 1.930505 -4.519648 28.327048 -5.253298 -2.973240 0.047426 -1.663491 -0.193942 3.800789 -34.536428 -27.873192 -0.058300 -1.557600 4.284500 12.633887 7.362106 -14.309348 -0.633116 5.955367 -1.854114 -6.936539 3.355102 8.339275 15.161462 17.204946 -0.833754 -1.741699 22.590863 10.856950 -4.074300 11.820900 10.826100 -7.558907 -3.045797 0.389100 -76.349410 -4.502053 39.400312 7.298761 -20.828723 -1.789495 -0.491601 -0.398463 -0.808151 15.355160 5.370832 1.633300 -7.125000 0.000000 0.000000 -9.078700 35.843900 2.064200 11.173505 1.490329 -0.809588 71.942902 -10.531510 18.460859 -18.350625 32.071428 -6.647640 1.211335 0.383310 -11.188499 -9.154936 -29.833314 5.227300 7.125000 0.000000 0.000000 23.348300 -58.696500 -8.098100 
